<svg width="69" height="84" viewBox="0 0 69 84" fill="none" xmlns="http://www.w3.org/2000/svg">
<path id="Vector" d="M58.652 21.8988C58.5758 21.831 58.5025 21.7632 58.4263 21.6954C61.0086 18.6411 65.6269 11.4028 68.2092 8.34851C67.8832 8.29765 67.695 8.35883 67.5742 8.47601C67.0439 8.9887 66.5107 9.50137 66.0214 10.0465C64.3061 10.9349 62.6199 11.8968 60.9658 12.9147C59.54 13.2192 57.8175 13.5023 57.3996 12.6961C57.2379 12.7309 57.0674 12.7686 56.8851 12.8063L57.8689 11.9306C57.807 11.998 57.9685 12.0219 58.2182 12.0256C59.3217 11.4322 60.3283 10.774 60.6081 9.49666C60.6765 9.1766 60.8332 8.84797 61.0367 8.57823C62.1927 7.05365 63.3956 5.55857 64.5428 4.03103C65.1503 3.22181 65.5906 2.30341 66.2597 1.54431L64.3365 2.12656C64.4781 1.93304 64.6255 1.73954 64.7671 1.54309C64.9028 1.35543 64.7686 1.00542 64.7606 0.73215C64.4607 0.795951 64.0318 0.76538 63.8874 0.938324C63.4128 1.50111 62.9646 2.08454 62.5251 2.67387L61.6694 2.93298C61.8169 2.7336 61.9644 2.53422 62.1118 2.33484C62.2475 2.14718 62.1133 1.79717 62.1053 1.5239C61.8054 1.5877 61.3765 1.55713 61.2321 1.73008C60.7663 2.28114 60.3269 2.85284 59.8964 3.43044C60.3122 2.87042 60.728 2.31041 61.1409 1.74745C61.2766 1.55979 61.1424 1.20978 61.1344 0.936514C60.8345 1.00032 60.4056 0.969735 60.2612 1.14268C59.536 2.00152 58.8783 2.90462 58.2147 3.80476C58.1616 3.87807 58.1115 3.95138 58.0584 4.02763L49.2087 6.18299C41.1392 15.1393 33.2251 24.2224 26.179 33.8867C26.0463 34.0685 25.9136 34.2502 25.7808 34.435C25.7749 34.435 25.7691 34.4291 25.7662 34.4261C20.6215 41.8246 14.1119 51.9135 9.25227 60.3381C6.77344 65.2701 4.30344 70.1992 2.49676 75.3741C1.9962 76.8123 1.4663 78.2417 0.95107 79.674C1.1272 79.7304 1.30332 79.7896 1.47944 79.8459C2.28478 77.6328 3.09306 75.4198 3.90136 73.1979C5.18128 73.5864 5.4708 74.072 4.97132 75.1253C4.44818 76.2345 4.25377 77.4679 3.89792 78.6422C3.63105 79.517 3.33481 80.3859 3.06207 81.2606C3.0413 81.3311 3.1057 81.4194 3.14064 81.5312C3.46107 81.4704 3.78148 81.4125 3.9314 81.3835C4.2966 82.1249 4.60043 82.7428 4.98024 83.5136C5.88603 82.1529 6.87417 82.8667 7.83129 83.1161C8.67391 83.3359 11.2265 83.5663 12.1601 83.8157C12.1057 79.1087 13.6424 84.334 15.5703 80.9841C15.5383 80.8665 15.5123 80.7225 15.4863 80.5608C16.1369 80.1072 16.9323 79.3543 17.121 80.1687C18.6616 79.7822 20.2461 79.4752 21.7489 78.9564C22.1665 78.8107 22.7156 77.8985 22.5754 77.5867C21.6236 75.4392 22.3578 73.4257 23.3826 71.5629C26.3179 66.2149 30.9927 60.8777 34.1892 55.6539C34.2039 55.6598 34.2185 55.6686 34.2332 55.6746C34.4605 55.2991 34.6848 54.9295 34.9091 54.5658C34.9003 54.5599 34.8886 54.5511 34.8769 54.5452C34.9801 54.3868 35.0805 54.2284 35.1896 54.073C35.1955 54.076 35.2014 54.0789 35.2072 54.0819C39.3065 47.5443 42.3308 42.9869 46.1024 39.0927C46.8514 38.0988 47.6034 37.1078 48.3554 36.1169C51.4576 32.0416 54.5804 27.981 57.7061 23.9205C58.4079 23.0087 59.1537 22.1264 59.879 21.2323C59.8204 21.1881 59.7647 21.1439 59.706 21.0996C59.3527 21.366 58.9994 21.6324 58.6461 21.8988L58.652 21.8988ZM6.85979 75.3862C5.72764 77.8452 7.05195 74.9637 5.86696 77.4049C5.62169 77.9095 5.32359 78.3935 5.04897 78.8863C4.87571 78.8565 4.70244 78.8266 4.52917 78.7967C4.58337 78.3268 4.5231 77.8154 4.70939 77.3899C5.85071 74.8046 4.5121 77.548 5.74735 74.9953C5.92465 74.6285 6.51667 75.159 6.9141 74.8781C6.90412 75.2953 7.0224 75.0224 6.85686 75.3833L6.85979 75.3862ZM6.25704 69.2263C5.97157 67.2922 11.6354 57.0717 16.947 48.804C17.17 48.9222 17.3929 49.0374 17.6159 49.1555C13.3846 55.6164 9.54946 62.281 6.25704 69.2263ZM26.0111 61.4191C25.9639 61.4836 25.9993 61.4337 26.1025 61.2901C26.073 61.3341 26.0406 61.3751 26.0111 61.4191ZM27.4796 35.2741C27.5121 35.2302 27.5327 35.2038 27.5239 35.2184C27.5091 35.236 27.4944 35.2565 27.4826 35.2741L27.4796 35.2741ZM41.6095 34.0267C41.6242 34.0091 41.636 33.9915 41.6478 33.9739C41.6566 33.9798 41.6654 33.9857 41.6742 33.9916C41.6507 34.0033 41.6301 34.015 41.6065 34.0267L41.6095 34.0267Z" fill="#ED2891"/>
</svg>
