<svg xmlns="http://www.w3.org/2000/svg" width="9" height="24" viewBox="0 0 9 24" fill="none">
  <path d="M3.77942 9.03491H4.84872V23.6908H3.77942V9.03491Z" fill="#CCCCCC"/>
  <path d="M3.99178 23.6908H3.77942V9.03491H3.99178V23.6908Z" fill="#E0E0E0"/>
  <mask id="mask0_1_356" style="mask-type:luminance" maskUnits="userSpaceOnUse" x="0" y="0" width="9" height="10">
    <path d="M0.015625 0.5625H8.62583V9.16741H0.015625V0.5625Z" fill="white"/>
  </mask>
  <g mask="url(#mask0_1_356)">
    <path d="M8.59743 4.83128C8.59743 7.18878 6.68148 9.10005 4.31867 9.10005C1.95555 9.10005 0.039917 7.18878 0.039917 4.83128C0.039917 2.47377 1.95555 0.5625 4.31867 0.5625C6.68148 0.5625 8.59743 2.47377 8.59743 4.83128Z" fill="#E84646"/>
  </g>
  <path d="M3.68777 2.77703C3.68777 3.33522 3.23435 3.7877 2.67491 3.7877C2.11516 3.7877 1.66174 3.33522 1.66174 2.77703C1.66174 2.21884 2.11516 1.76636 2.67491 1.76636C3.23435 1.76636 3.68777 2.21884 3.68777 2.77703Z" fill="white"/>
</svg>