<svg width="23" height="23" viewBox="0 0 23 23" fill="none" xmlns="http://www.w3.org/2000/svg">
<path d="M7.35819 0H16.6112C20.1361 0 23.0001 2.86401 23.0001 6.38895V15.6419C23.0001 17.3364 22.327 18.9614 21.1288 20.1596C19.9307 21.3577 18.3056 22.0309 16.6112 22.0309H7.35819C3.83325 22.0309 0.969238 19.1669 0.969238 15.6419V6.38895C0.969238 4.6945 1.64236 3.06944 2.84052 1.87128C4.03868 0.67312 5.66373 0 7.35819 0ZM7.13788 2.20309C6.08615 2.20309 5.0775 2.62088 4.33381 3.36457C3.59012 4.10826 3.17232 5.11691 3.17232 6.16864V15.8622C3.17232 18.0543 4.94581 19.8278 7.13788 19.8278H16.8315C17.8832 19.8278 18.8918 19.41 19.6355 18.6663C20.3792 17.9226 20.797 16.914 20.797 15.8622V6.16864C20.797 3.97657 19.0235 2.20309 16.8315 2.20309H7.13788ZM17.7678 3.8554C18.133 3.8554 18.4832 4.00047 18.7414 4.25869C18.9996 4.51692 19.1447 4.86715 19.1447 5.23233C19.1447 5.59751 18.9996 5.94774 18.7414 6.20597C18.4832 6.46419 18.133 6.60926 17.7678 6.60926C17.4026 6.60926 17.0524 6.46419 16.7941 6.20597C16.5359 5.94774 16.3908 5.59751 16.3908 5.23233C16.3908 4.86715 16.5359 4.51692 16.7941 4.25869C17.0524 4.00047 17.4026 3.8554 17.7678 3.8554ZM11.9847 5.50772C13.4454 5.50772 14.8463 6.08799 15.8792 7.12089C16.9121 8.15379 17.4924 9.55469 17.4924 11.0154C17.4924 12.4762 16.9121 13.8771 15.8792 14.91C14.8463 15.9429 13.4454 16.5231 11.9847 16.5231C10.5239 16.5231 9.12302 15.9429 8.09013 14.91C7.05723 13.8771 6.47695 12.4762 6.47695 11.0154C6.47695 9.55469 7.05723 8.15379 8.09013 7.12089C9.12302 6.08799 10.5239 5.50772 11.9847 5.50772ZM11.9847 7.7108C11.1082 7.7108 10.2677 8.05897 9.64794 8.67871C9.0282 9.29844 8.68004 10.139 8.68004 11.0154C8.68004 11.8919 9.0282 12.7324 9.64794 13.3522C10.2677 13.9719 11.1082 14.3201 11.9847 14.3201C12.8611 14.3201 13.7017 13.9719 14.3214 13.3522C14.9411 12.7324 15.2893 11.8919 15.2893 11.0154C15.2893 10.139 14.9411 9.29844 14.3214 8.67871C13.7017 8.05897 12.8611 7.7108 11.9847 7.7108Z" fill="white"/>
</svg>
