<svg width="26" height="21" viewBox="0 0 26 21" fill="none" xmlns="http://www.w3.org/2000/svg">
<path d="M25.7937 3.02609C24.8716 3.44521 23.8777 3.72063 22.8479 3.85236C23.9017 3.21768 24.716 2.21179 25.0992 1.00233C24.1052 1.60107 23.0036 2.02019 21.842 2.25969C20.896 1.22985 19.5668 0.631104 18.0579 0.631104C15.2438 0.631104 12.9446 2.93029 12.9446 5.76834C12.9446 6.17549 12.9925 6.57066 13.0763 6.94188C8.81328 6.72634 5.01723 4.67862 2.49053 1.57712C2.04745 2.33154 1.79598 3.21768 1.79598 4.15173C1.79598 5.93599 2.6941 7.51668 4.08319 8.4148C3.23297 8.4148 2.44263 8.1753 1.74808 7.81605V7.85198C1.74808 10.3428 3.52037 12.4264 5.86745 12.8934C5.1139 13.0996 4.3228 13.1283 3.55629 12.9772C3.88154 13.9981 4.51852 14.8913 5.3777 15.5314C6.23687 16.1715 7.27504 16.5262 8.34626 16.5458C6.53042 17.9833 4.27957 18.7603 1.96363 18.7491C1.55648 18.7491 1.14933 18.7252 0.742188 18.6773C3.01742 20.1382 5.72375 20.9885 8.62168 20.9885C18.0579 20.9885 23.2431 13.1569 23.2431 6.36709C23.2431 6.13956 23.243 5.92402 23.2311 5.69649C24.237 4.978 25.0992 4.0679 25.7937 3.02609Z" fill="white"/>
</svg>
