<svg width="133" height="48" viewBox="0 0 133 48" fill="none" xmlns="http://www.w3.org/2000/svg">
<g id="Group 11624">
<path id="Vector" d="M25.3595 8.70312L18.8118 18.5387L25.6478 28.8936H17.9748L14.7737 23.6447L11.5432 28.8936H4.01562L10.8517 18.6255L4.30397 8.70312H11.977L14.8898 13.5195L17.8319 8.70312H25.3595Z" fill="#0E3179"/>
<path id="Vector_2" d="M23.625 18.8567V18.7993C23.625 12.9444 28.4414 8.27216 34.6714 8.27216C40.9014 8.27216 45.6604 12.8869 45.6604 18.7419V18.7993C45.6604 24.6542 40.844 29.3264 34.614 29.3264C28.384 29.3264 23.625 24.7116 23.625 18.8567ZM38.8537 18.8567V18.7993C38.8537 16.4058 37.2091 14.2419 34.614 14.2419C32.0189 14.2419 30.4317 16.3764 30.4317 18.7419V18.7993C30.4317 21.1928 32.0763 23.3566 34.6714 23.3566C37.2665 23.3566 38.8537 21.2221 38.8537 18.8567ZM34.873 2.44531L41.5355 3.94572L36.9207 7.26296H32.1044L34.873 2.44659V2.44531Z" fill="#0E3179"/>
<path id="Vector_3" d="M46.1797 18.858V18.8005C46.1797 12.7721 50.8812 8.27344 56.9097 8.27344C61.3509 8.27344 64.3517 10.436 66.0525 13.5223L60.4859 16.7821C59.7357 15.3404 58.6691 14.3299 56.8229 14.3299C54.5442 14.3299 53.0451 16.3203 53.0451 18.7431V18.8005C53.0451 21.425 54.6029 23.2712 56.8229 23.2712C58.7265 23.2712 59.7931 22.2326 60.6301 20.7335L66.1966 23.8772C64.4946 26.8767 61.6686 29.3289 56.6494 29.3289C51.0535 29.3289 46.1797 25.1173 46.1797 18.8592V18.858Z" fill="#0E3179"/>
<path id="Vector_4" d="M66.6328 8.70312H73.3821V15.8275H79.5547V8.70312H86.304V28.8936H79.5547V21.6544H73.3821V28.8936H66.6328V8.70312Z" fill="#0E3179"/>
<path id="Vector_5" d="M87.7891 8.70312H94.5384V28.8936H87.7891V8.70312Z" fill="#0E3179"/>
<path id="Vector_6" d="M101.949 14.4139H96.0078V8.70312H114.64V14.4139H108.699V28.8936H101.949V14.4139Z" fill="#0E3179"/>
<path id="Vector_7" d="M116.062 8.7044H122.812V23.1254H132.3V28.8936H116.062V8.70312V8.7044Z" fill="#0E3179"/>
<path id="Vector_8" d="M37.1285 41.3672H40.9407V44.4816C40.0821 45.1795 38.7565 45.7345 37.3249 45.7345C34.282 45.7345 32.367 43.5145 32.367 40.5252V40.4894C32.367 37.6966 34.3535 35.3516 37.1285 35.3516C38.9006 35.3516 39.9749 35.9423 40.9407 36.7831L41.8542 35.7088C40.6013 34.6524 39.2949 34.0438 37.182 34.0438C33.4234 34.0438 30.8984 37.0867 30.8984 40.5239V40.5596C30.8984 44.1397 33.3328 47.004 37.2714 47.004C39.3842 47.004 41.1385 46.1262 42.3008 45.0889V40.0939H37.1272V41.3647L37.1285 41.3672ZM49.4966 34.1714L43.7859 46.7909H45.2365L46.7229 43.4788H53.5424L55.0109 46.7909H56.533L50.8223 34.1714H49.4979H49.4966ZM47.2766 42.2093L50.1409 35.8185L52.9874 42.2093H47.2766ZM52.7896 31.3084L51.376 30.6641L49.586 32.9734H50.7317L52.7909 31.3084H52.7896ZM59.7877 34.262H58.3741V46.7922H66.8407V45.4857H59.7877V34.262ZM71.7272 45.0558L67.2694 34.262H65.6937L71.0816 46.8815H72.3345L77.7225 34.262H76.2004L71.7247 45.0558H71.7272ZM100.403 34.262H79.5674V46.7922H88.714V45.5036H80.981V41.1172H87.8196V39.8286H80.981V35.5506H98.4552L90.3599 45.8442V46.7935H100.402V45.5227H92.2749L100.402 35.2125V34.2633L100.403 34.262Z" fill="#0E3179"/>
<path id="Vector_9" d="M25.7677 9.19895C25.7345 9.1696 25.7026 9.14026 25.6694 9.11091C26.7871 7.78147 28.7838 4.63265 29.9015 3.3032C29.7598 3.28151 29.6782 3.30831 29.6259 3.35934C29.3962 3.58261 29.1653 3.80589 28.9535 4.0432C28.2097 4.43106 27.4786 4.85082 26.7616 5.29482C26.1428 5.42878 25.3951 5.55382 25.2127 5.20423C25.1425 5.21954 25.0685 5.23613 24.9894 5.25271L25.4155 4.87123C25.3887 4.90058 25.4589 4.91078 25.5674 4.91206C26.0458 4.65306 26.4822 4.36599 26.6021 3.81099C26.6314 3.67193 26.699 3.52903 26.7871 3.41165C27.2872 2.7482 27.8078 2.09751 28.3041 1.43279C28.5669 1.08065 28.757 0.681309 29.0466 0.350861L28.2122 0.606033C28.2735 0.521826 28.3373 0.437621 28.3985 0.352138C28.4572 0.270483 28.3985 0.118655 28.3947 0C28.2645 0.0280689 28.0783 0.0153131 28.0157 0.0905888C27.8103 0.335554 27.6164 0.589448 27.4263 0.845895L27.055 0.959449C27.1188 0.87269 27.1826 0.785931 27.2464 0.699172C27.3051 0.617517 27.2464 0.465689 27.2426 0.347034C27.1124 0.375103 26.9262 0.362347 26.8636 0.437623C26.6621 0.677484 26.4719 0.926275 26.2857 1.17762C26.4656 0.93393 26.6455 0.690242 26.8241 0.445278C26.8828 0.363623 26.8241 0.211794 26.8203 0.0931391C26.6901 0.121208 26.5038 0.108448 26.4413 0.183724C26.1275 0.557551 25.843 0.950518 25.5559 1.34221C25.5329 1.3741 25.5112 1.406 25.4883 1.43917L21.6479 2.38586C18.1546 6.28488 14.7289 10.2388 11.6809 14.444C11.6235 14.5231 11.5661 14.6022 11.5087 14.6826C11.5061 14.6826 11.5036 14.68 11.5023 14.6788C9.27719 17.8978 6.46265 22.2867 4.36259 25.951C3.29214 28.0957 2.22552 30.2391 1.44725 32.4885C1.23163 33.1137 1.00325 33.735 0.78125 34.3576C0.857802 34.3819 0.934352 34.4074 1.0109 34.4316C1.35794 33.4696 1.70625 32.5076 2.05455 31.5418C2.61083 31.7089 2.73714 31.9194 2.52152 32.3775C2.29569 32.8598 2.21276 33.3956 2.05966 33.906C1.94483 34.2862 1.81725 34.6638 1.69987 35.044C1.69094 35.0746 1.71901 35.1129 1.73432 35.1614C1.87339 35.1346 2.01245 35.1091 2.07752 35.0963C2.23701 35.4179 2.36969 35.6858 2.53556 36.0201C2.92724 35.4281 3.35721 35.7368 3.77314 35.844C4.13931 35.9384 5.24803 36.0354 5.65376 36.1425C5.62441 34.0986 6.29806 36.3658 7.1312 34.9088C7.11716 34.8577 7.10568 34.7952 7.0942 34.7251C7.37616 34.5273 7.72065 34.1994 7.80358 34.5528C8.47213 34.3831 9.15982 34.2479 9.81178 34.0208C9.99295 33.957 10.2303 33.5602 10.169 33.425C9.75309 32.4936 10.0695 31.6183 10.5122 30.8082C11.7804 28.4823 13.8039 26.1589 15.1857 23.8866C15.1921 23.8892 15.1985 23.893 15.2048 23.8956C15.3031 23.7323 15.4 23.5715 15.497 23.4133C15.4932 23.4107 15.4881 23.4069 15.483 23.4044C15.5276 23.3355 15.571 23.2666 15.6182 23.1989C15.6208 23.2002 15.6233 23.2015 15.6259 23.2028C17.398 20.3589 18.7058 18.3762 20.3389 16.6806C20.663 16.2481 20.9883 15.8168 21.3137 15.3856C22.6559 13.6121 24.007 11.8451 25.3594 10.078C25.6631 9.68122 25.9858 9.29719 26.2997 8.90805C26.2742 8.88891 26.25 8.86978 26.2244 8.85064C26.0713 8.96674 25.9182 9.08284 25.7651 9.19895H25.7677ZM3.3419 32.4885C2.85325 33.5577 3.42483 32.3048 2.91321 33.3663C2.80731 33.5857 2.67845 33.7962 2.5598 34.0106C2.48452 33.9978 2.40924 33.9851 2.33397 33.9723C2.35693 33.7682 2.33014 33.5462 2.41052 33.3612C2.903 32.2371 2.32504 33.4301 2.85835 32.3201C2.9349 32.1606 3.19262 32.3902 3.36486 32.2678C3.36104 32.4489 3.41207 32.3303 3.34062 32.4872L3.3419 32.4885ZM3.07269 29.8143C2.94638 28.9748 5.39348 24.5297 7.69003 20.933C7.78699 20.9841 7.88396 21.0338 7.98092 21.0849C6.15134 23.8956 4.494 26.7943 3.07269 29.8143ZM11.6414 26.4001C11.6209 26.4282 11.6363 26.4065 11.6809 26.3439C11.6682 26.3631 11.6541 26.3809 11.6414 26.4001ZM12.2474 15.0449C12.2614 15.0258 12.2704 15.0143 12.2665 15.0207C12.2602 15.0283 12.2538 15.0373 12.2487 15.0449H12.2474ZM18.3817 14.4861C18.3881 14.4785 18.3932 14.4708 18.3983 14.4631C18.4021 14.4657 18.406 14.4682 18.4098 14.4708C18.3996 14.4759 18.3907 14.481 18.3804 14.4861H18.3817Z" fill="#ED2891"/>
</g>
</svg>
