<svg width="160" height="57" viewBox="0 0 160 57" fill="none" xmlns="http://www.w3.org/2000/svg">
<g id="Group 11616">
<path id="Vector" d="M29.7993 10.5526L21.8582 22.4813L30.149 35.0397H20.8431L16.9607 28.6738L13.0428 35.0397H3.91333L12.2041 22.5865L4.26304 10.5526H13.5689L17.1016 16.3939L20.6698 10.5526H29.7993Z" fill="white"/>
<path id="Vector_2" d="M27.7107 22.8658V22.7962C27.7107 15.6953 33.552 10.0289 41.1078 10.0289C48.6636 10.0289 54.4353 15.6257 54.4353 22.7266V22.7962C54.4353 29.8971 48.594 35.5635 41.0382 35.5635C33.4824 35.5635 27.7107 29.9667 27.7107 22.8658ZM46.1801 22.8658V22.7962C46.1801 19.8933 44.1855 17.269 41.0382 17.269C37.8908 17.269 35.9659 19.8578 35.9659 22.7266V22.7962C35.9659 25.6991 37.9605 28.3234 41.1078 28.3234C44.2552 28.3234 46.1801 25.7347 46.1801 22.8658ZM41.3523 2.96204L49.4327 4.78174L43.8358 8.8049H37.9945L41.3523 2.96359V2.96204Z" fill="white"/>
<path id="Vector_3" d="M55.0569 22.8632V22.7936C55.0569 15.4823 60.7589 10.0262 68.0703 10.0262C73.4566 10.0262 77.096 12.649 79.1587 16.3921L72.4075 20.3456C71.4977 18.5971 70.2041 17.3716 67.965 17.3716C65.2014 17.3716 63.3833 19.7855 63.3833 22.724V22.7936C63.3833 25.9765 65.2726 28.2156 67.965 28.2156C70.2737 28.2156 71.5673 26.956 72.5824 25.1378L79.3335 28.9506C77.2694 32.5884 73.8419 35.5625 67.7546 35.5625C60.9678 35.5625 55.0569 30.4546 55.0569 22.8648V22.8632Z" fill="white"/>
<path id="Vector_4" d="M79.8594 10.5526H88.045V19.1931H95.5311V10.5526H103.717V35.0397H95.5311V26.26H88.045V35.0397H79.8594V10.5526Z" fill="white"/>
<path id="Vector_5" d="M105.532 10.5526H113.718V35.0397H105.532V10.5526Z" fill="white"/>
<path id="Vector_6" d="M122.711 17.4786H115.505V10.5526H138.102V17.4786H130.896V35.0397H122.711V17.4786Z" fill="white"/>
<path id="Vector_7" d="M139.808 10.5542H147.993V28.0441H159.501V35.0397H139.808V10.5526V10.5542Z" fill="white"/>
<path id="Vector_8" d="M44.0783 50.1645H48.7018V53.9416C47.6604 54.788 46.0527 55.4611 44.3166 55.4611C40.6261 55.4611 38.3035 52.7687 38.3035 49.1432V49.0999C38.3035 45.7127 40.7127 42.8686 44.0783 42.8686C46.2276 42.8686 47.5304 43.5851 48.7018 44.6048L49.8097 43.3019C48.2902 42.0207 46.7057 41.2826 44.1433 41.2826C39.5847 41.2826 36.5225 44.973 36.5225 49.1417V49.185C36.5225 53.5269 39.4748 57.0007 44.2516 57.0007C46.814 57.0007 48.9416 55.9362 50.3513 54.6781V48.6202H44.0767V50.1614L44.0783 50.1645ZM59.0785 41.4373L52.1524 56.7423H53.9118L55.7145 52.7254H63.9852L65.7662 56.7423H67.6122L60.6862 41.4373H59.08H59.0785ZM56.386 51.1857L59.8599 43.435L63.3121 51.1857H56.386ZM63.0722 37.965L61.3577 37.1836L59.1868 39.9843H60.5763L63.0738 37.965H63.0722ZM71.5595 41.5472H69.845V56.7439H80.1134V55.1594H71.5595V41.5472ZM86.0398 54.6379L80.6333 41.5472H78.7223L85.2568 56.8522H86.7764L93.3109 41.5472H91.4649L86.0367 54.6379H86.0398ZM120.818 41.5472H95.5484V56.7439H106.641V55.181H97.2629V49.8612H105.557V48.2983H97.2629V43.11H118.456L108.638 55.5942V56.7454H120.817V55.2042H110.96L120.817 42.7V41.5487L120.818 41.5472Z" fill="white"/>
<path id="Vector_9" d="M30.3037 11.1565C30.2634 11.1209 30.2248 11.0854 30.1845 11.0498C31.54 9.4374 33.9617 5.6185 35.3171 4.00614C35.1454 3.97983 35.0464 4.01233 34.9829 4.07422C34.7044 4.34501 34.4243 4.6158 34.1674 4.90361C33.2653 5.37401 32.3787 5.8831 31.5091 6.42158C30.7586 6.58405 29.8518 6.7357 29.6306 6.31172C29.5455 6.33029 29.4557 6.3504 29.3598 6.37052L29.8766 5.90786C29.8441 5.94345 29.9292 5.95582 30.0607 5.95737C30.641 5.64325 31.1702 5.2951 31.3156 4.62199C31.3512 4.45333 31.4332 4.28003 31.54 4.13767C32.1466 3.33304 32.7779 2.54388 33.3798 1.7377C33.6986 1.31062 33.9292 0.826295 34.2804 0.425526L33.2684 0.735C33.3427 0.632874 33.4201 0.530749 33.4943 0.427075C33.5655 0.328044 33.4943 0.143905 33.4897 0C33.3319 0.0340421 33.106 0.0185718 33.0301 0.109867C32.781 0.406961 32.5458 0.714885 32.3153 1.02591L31.865 1.16362C31.9423 1.0584 32.0197 0.953181 32.0971 0.84796C32.1683 0.748928 32.0971 0.56479 32.0924 0.420884C31.9346 0.454927 31.7087 0.439456 31.6329 0.530751C31.3884 0.821656 31.1578 1.12339 30.9319 1.42822C31.1501 1.13268 31.3683 0.83713 31.5849 0.540035C31.6561 0.441003 31.5849 0.256865 31.5802 0.11296C31.4224 0.147002 31.1965 0.131527 31.1207 0.222821C30.74 0.676201 30.395 1.15279 30.0468 1.62783C30.019 1.66652 29.9926 1.7052 29.9648 1.74544L25.3072 2.89358C21.0705 7.62234 16.9158 12.4176 13.2192 17.5178C13.1495 17.6137 13.0799 17.7096 13.0103 17.8071C13.0072 17.8071 13.0041 17.804 13.0025 17.8025C10.3039 21.7065 6.89043 27.0294 4.34347 31.4735C3.04522 34.0746 1.75162 36.6742 0.807727 39.4022C0.546221 40.1604 0.269242 40.914 0 41.6691C0.0928421 41.6985 0.185682 41.7294 0.278524 41.7588C0.699409 40.5921 1.12184 39.4254 1.54427 38.2541C2.21892 38.4568 2.37211 38.7121 2.11061 39.2676C1.83672 39.8525 1.73615 40.5024 1.55046 41.1213C1.4112 41.5824 1.25646 42.0405 1.1141 42.5016C1.10327 42.5387 1.13732 42.5851 1.15588 42.6439C1.32455 42.6114 1.49321 42.5805 1.57213 42.565C1.76555 42.955 1.92647 43.2799 2.12763 43.6853C2.60267 42.9673 3.12413 43.3418 3.62858 43.4718C4.07267 43.5863 5.41734 43.7039 5.9094 43.8339C5.87381 41.355 6.69082 44.1046 7.70125 42.3376C7.68423 42.2757 7.6703 42.1998 7.65638 42.1147C7.99835 41.8749 8.41614 41.4772 8.51672 41.9058C9.32754 41.7 10.1616 41.536 10.9523 41.2606C11.172 41.1832 11.4598 40.702 11.3855 40.538C10.8811 39.4084 11.2648 38.3469 11.8018 37.3643C13.3399 34.5435 15.794 31.7257 17.4698 28.9698C17.4775 28.9729 17.4853 28.9776 17.493 28.9807C17.6122 28.7826 17.7298 28.5876 17.8474 28.3958C17.8427 28.3927 17.8365 28.388 17.8303 28.3849C17.8845 28.3014 17.9371 28.2178 17.9944 28.1358C17.9974 28.1374 18.0005 28.1389 18.0036 28.1404C20.1529 24.6914 21.739 22.2868 23.7196 20.2303C24.1126 19.7057 24.5072 19.1827 24.9018 18.6597C26.5296 16.5089 28.1683 14.3658 29.8085 12.2227C30.1768 11.7414 30.5683 11.2757 30.9489 10.8037C30.918 10.7805 30.8886 10.7573 30.8576 10.7341C30.6719 10.8749 30.4863 11.0157 30.3006 11.1565H30.3037ZM3.10557 39.4022C2.51293 40.6989 3.20615 39.1794 2.58565 40.4668C2.45722 40.7329 2.30094 40.9883 2.15703 41.2482C2.06574 41.2327 1.97444 41.2173 1.88315 41.2018C1.911 40.9542 1.8785 40.685 1.97599 40.4606C2.57327 39.0974 1.87232 40.5442 2.51912 39.1979C2.61196 39.0045 2.92453 39.2831 3.13342 39.1345C3.12878 39.3542 3.19067 39.2103 3.10402 39.4007L3.10557 39.4022ZM2.77907 36.1589C2.62588 35.1407 5.59374 29.7497 8.379 25.3877C8.4966 25.4496 8.6142 25.5099 8.7318 25.5718C6.51287 28.9807 4.50284 32.4963 2.77907 36.1589ZM13.1712 32.0182C13.1464 32.0522 13.165 32.0259 13.2192 31.9501C13.2037 31.9733 13.1867 31.995 13.1712 32.0182ZM13.9062 18.2466C13.9232 18.2234 13.9341 18.2094 13.9294 18.2172C13.9217 18.2265 13.9139 18.2373 13.9077 18.2466H13.9062ZM21.3459 17.5688C21.3537 17.5595 21.3599 17.5503 21.3661 17.541C21.3707 17.5441 21.3754 17.5472 21.38 17.5503C21.3676 17.5564 21.3568 17.5626 21.3444 17.5688H21.3459Z" fill="#ED2891"/>
</g>
</svg>
