<svg width="502" height="561" viewBox="0 0 502 561" fill="none" xmlns="http://www.w3.org/2000/svg">
<g opacity="0.34">
<path d="M509.262 170.815L373.636 363.858L515.235 567.093H356.3L289.993 464.073L223.079 567.093H67.1572L208.756 365.561L73.1299 170.815H232.065L292.398 265.346L353.34 170.815H509.262Z" fill="#0E3179"/>
<path d="M517.759 180.548C517.072 179.972 516.411 179.396 515.724 178.82C538.874 152.727 580.234 90.9249 603.384 64.8319C600.451 64.4062 598.759 64.9321 597.676 65.9337C592.919 70.3159 588.135 74.6981 583.748 79.3558C568.341 86.9684 553.198 95.2069 538.346 103.921C525.529 106.551 510.042 109.005 506.263 102.143C504.81 102.444 503.277 102.769 501.638 103.095L510.465 95.6077C509.91 96.1836 511.364 96.3839 513.61 96.4089C523.52 91.3255 532.558 85.6913 535.042 74.7984C535.65 72.0689 537.051 69.2642 538.875 66.9604C549.234 53.939 560.016 41.1679 570.297 28.1214C575.741 21.21 579.679 13.372 585.678 6.88635L568.394 11.8946C569.662 10.2419 570.984 8.58918 572.252 6.91142C573.468 5.30878 572.253 2.32884 572.173 0C569.478 0.550908 565.619 0.30055 564.324 1.77799C560.069 6.58591 556.052 11.5691 552.115 16.6024L544.424 18.8311C545.746 17.1283 547.067 15.4255 548.388 13.7226C549.604 12.12 548.388 9.14007 548.309 6.81123C545.614 7.36214 541.755 7.11178 540.46 8.58922C536.285 13.297 532.347 18.18 528.489 23.1131C532.215 18.3302 535.941 13.5474 539.641 8.73946C540.857 7.13682 539.641 4.15688 539.562 1.82804C536.866 2.37895 533.008 2.12851 531.713 3.60595C525.211 10.943 519.318 18.6558 513.372 26.3435C512.896 26.9695 512.447 27.5956 511.971 28.2466L432.425 46.8272C360.066 123.353 289.109 200.956 225.974 283.492C224.784 285.045 223.595 286.597 222.406 288.175C222.353 288.175 222.3 288.125 222.274 288.1C176.184 351.279 117.885 437.421 74.3856 509.34C52.2129 551.434 30.1196 593.503 13.9988 637.651C9.53257 649.921 4.80205 662.117 0.203674 674.337C1.78932 674.812 3.37494 675.313 4.96058 675.789C12.1489 656.908 19.3635 638.027 26.5782 619.071C38.1006 622.351 40.7169 626.483 36.2507 635.473C31.573 644.938 29.8553 655.455 26.684 665.472C24.3055 672.934 21.6627 680.347 19.2314 687.809C19.0464 688.41 19.6279 689.161 19.945 690.113C22.8256 689.587 25.7062 689.086 27.054 688.836C30.3574 695.146 33.1059 700.405 36.5414 706.965C44.6547 695.346 53.5607 701.406 62.176 703.51C69.7607 705.363 92.7262 707.266 101.13 709.369C100.522 669.253 114.476 713.751 131.733 685.154C131.442 684.153 131.205 682.926 130.967 681.549C136.807 677.667 143.943 671.231 145.66 678.168C159.508 674.837 173.753 672.183 187.257 667.726C191.01 666.474 195.925 658.686 194.657 656.031C186.042 637.751 192.596 620.573 201.766 604.672C228.035 559.022 269.949 513.421 298.57 468.823C298.702 468.873 298.834 468.948 298.966 468.998C301.001 465.793 303.009 462.638 305.018 459.533C304.939 459.482 304.833 459.407 304.727 459.357C305.652 458.005 306.551 456.653 307.529 455.326C307.581 455.351 307.634 455.376 307.687 455.401C344.395 399.584 371.483 360.67 405.31 327.39C412.023 318.901 418.762 310.437 425.501 301.973C453.302 267.165 481.289 232.483 509.302 197.801C515.592 190.013 522.278 182.476 528.779 174.838C528.251 174.463 527.749 174.087 527.22 173.711C524.049 175.99 520.877 178.269 517.706 180.548H517.759ZM53.2436 637.651C43.1219 658.636 54.9613 634.045 44.3639 654.88C42.1705 659.187 39.5013 663.318 37.0436 667.525C35.4843 667.275 33.9251 667.025 32.3658 666.774C32.8415 662.768 32.2866 658.41 33.9515 654.779C44.1525 632.718 32.1809 656.132 43.2276 634.346C44.8132 631.216 50.1516 635.723 53.7193 633.319C53.64 636.875 54.6971 634.546 53.2171 637.626L53.2436 637.651ZM47.6674 585.165C45.051 568.687 95.7389 481.444 143.308 410.852C145.317 411.854 147.325 412.831 149.334 413.832C111.437 468.998 77.1076 525.892 47.6674 585.165ZM225.154 518.154C224.731 518.705 225.049 518.279 225.974 517.052C225.709 517.428 225.418 517.779 225.154 518.154ZM237.707 295.287C237.998 294.911 238.183 294.686 238.104 294.811C237.971 294.961 237.839 295.137 237.734 295.287H237.707ZM364.77 284.319C364.903 284.168 365.008 284.018 365.114 283.868C365.193 283.918 365.273 283.968 365.352 284.018C365.14 284.118 364.955 284.219 364.744 284.319H364.77Z" fill="#ED2891"/>
</g>
</svg>
