<svg xmlns="http://www.w3.org/2000/svg" width="22" height="23" viewBox="0 0 22 23" fill="none">
  <path d="M11.3267 0.828125C5.46131 0.828125 0.703125 5.58631 0.703125 11.4517C0.703125 17.3172 5.46131 22.0753 11.3267 22.0753C17.1922 22.0753 21.9503 17.3172 21.9503 11.4517C21.9503 5.58631 17.1922 0.828125 11.3267 0.828125ZM11.3267 20.5791C6.29922 20.5791 2.19941 16.4792 2.19941 11.4517C2.19941 6.42422 6.29922 2.32441 11.3267 2.32441C16.3542 2.32441 20.4541 6.42422 20.4541 11.4517C20.4541 16.4792 16.3542 20.5791 11.3267 20.5791Z" fill="#E84646"/>
  <path d="M11.5214 11.5854V5.58883C11.5214 5.20549 11.2239 4.9043 10.8452 4.9043C10.4666 4.9043 10.1691 5.20549 10.1691 5.58883V11.8592C10.1691 11.914 10.1691 11.9413 10.1691 11.9961C10.1691 12.0235 10.1691 12.0235 10.1961 12.0509C10.1961 12.0783 10.1961 12.1056 10.2232 12.133C10.2232 12.1604 10.2502 12.1878 10.2502 12.1878C10.2502 12.2152 10.2773 12.2152 10.2773 12.2425C10.3043 12.2699 10.3313 12.3247 10.3584 12.3521L13.1983 15.2271C13.3336 15.364 13.4958 15.4188 13.6852 15.4188C13.8745 15.4188 14.0368 15.364 14.172 15.2271C14.4425 14.9533 14.4425 14.5152 14.172 14.2688L11.5214 11.5854Z" fill="black"/>
</svg>